<?xml version="1.0" encoding="UTF-8" standalone="no" ?>
<!DOCTYPE svg PUBLIC "-//W3C//DTD SVG 1.1//EN" "http://www.w3.org/Graphics/SVG/1.1/DTD/svg11.dtd">
<svg xmlns="http://www.w3.org/2000/svg" xmlns:xlink="http://www.w3.org/1999/xlink" version="1.1" width="500" height="500" viewBox="0 0 500 500" xml:space="preserve">
<desc>Created with Fabric.js 4.6.0</desc>
<defs>
</defs>
<g transform="matrix(1.66 0 0 1.66 254.39 163.17)" style="" id="HuKKyCmZ1nExOXQRL1_Nf"  >
		<text xml:space="preserve" font-family="Open Sans" font-size="18" font-style="normal" font-weight="normal" line-height="-60.84" style="stroke: none; stroke-width: 0; stroke-dasharray: none; stroke-linecap: butt; stroke-dashoffset: 0; stroke-linejoin: miter; stroke-miterlimit: 4; fill: rgb(0,0,0); fill-rule: nonzero; opacity: 1; white-space: pre;" ><tspan x="-86.36" y="5.65" >SKY_LEVI . CSI</tspan></text>
</g>
<g transform="matrix(1.12 0 0 1.12 220 120)" id="fAPM6uwvdpT1ikEMhx2xg"  >
<g style="" vector-effect="non-scaling-stroke"   >
		<g transform="matrix(1 0 0 1 0 0)" id="X96cathHQkLjIPs8QNXqQ"  >
<path style="stroke: none; stroke-width: 1; stroke-dasharray: none; stroke-linecap: butt; stroke-dashoffset: 0; stroke-linejoin: miter; stroke-miterlimit: 4; fill: rgb(179,181,179); fill-rule: nonzero; opacity: 1;" vector-effect="non-scaling-stroke"  transform=" translate(-40, -40)" d="M 40 17.6 C 17.4 17.6 1.7000000000000028 37.8 1 38.7 L 0 40 L 1 41.3 C 1.7 42.199999999999996 17.4 62.4 40 62.4 C 62.6 62.4 78.3 42.099999999999994 79 41.3 L 80 40 L 79 38.7 C 78.3 37.8 62.6 17.6 40 17.6 z" stroke-linecap="round" />
</g>
		<g transform="matrix(1 0 0 1 0 0)" id="Fy3M7kX6h8te24HM7Iem3"  >
<path style="stroke: none; stroke-width: 1; stroke-dasharray: none; stroke-linecap: butt; stroke-dashoffset: 0; stroke-linejoin: miter; stroke-miterlimit: 4; fill: rgb(255,255,255); fill-rule: nonzero; opacity: 1;" vector-effect="non-scaling-stroke"  transform=" translate(-40, -40)" d="M 34.5 57.6 C 19.9 55.1 9 43.9 5.6 40 C 9 36.1 19.9 24.9 34.4 22.4 C 27 24.8 21.6 31.8 21.6 40 C 21.6 48.2 27 55.2 34.5 57.6 z M 74.4 40 C 71 43.9 60.1 55.1 45.6 57.6 C 53 55.2 58.4 48.2 58.4 40 C 58.4 31.799999999999997 53 24.8 45.5 22.4 C 60.1 24.9 71 36.1 74.4 40 z" stroke-linecap="round" />
</g>
		<g transform="matrix(1 0 0 1 0 0)" id="LIqlnbnTxJ-qIBpeq-TQl"  >
<path style="stroke: none; stroke-width: 1; stroke-dasharray: none; stroke-linecap: butt; stroke-dashoffset: 0; stroke-linejoin: miter; stroke-miterlimit: 4; fill: rgb(255,255,255); fill-rule: nonzero; opacity: 1;" vector-effect="non-scaling-stroke"  transform=" translate(-40, -40)" d="M 54 40 C 54 32.3 47.7 26 40 26 C 32.3 26 26 32.3 26 40 C 26 47.7 32.3 54 40 54 C 47.7 54 54 47.7 54 40 z" stroke-linecap="round" />
</g>
		<g transform="matrix(1 0 0 1 -0.05 -0.1)" id="K88HHfj8CYEzAfIxQn4ux"  >
<path style="stroke: none; stroke-width: 1; stroke-dasharray: none; stroke-linecap: butt; stroke-dashoffset: 0; stroke-linejoin: miter; stroke-miterlimit: 4; fill: rgb(179,181,179); fill-rule: nonzero; opacity: 1;" vector-effect="non-scaling-stroke"  transform=" translate(-39.95, -39.9)" d="M 49 39.9 C 49 44.9 44.9 49 39.9 49 C 34.9 49 30.9 45 30.9 40 C 30.9 39.2 31.099999999999998 38.4 31.299999999999997 37.6 C 31.799999999999997 38.9 33.199999999999996 39.800000000000004 34.699999999999996 39.800000000000004 C 36.8 39.800000000000004 38.49999999999999 38.1 38.49999999999999 36.00000000000001 C 38.49999999999999 34.10000000000001 37.099999999999994 32.50000000000001 35.199999999999996 32.20000000000001 C 36.599999999999994 31.40000000000001 38.199999999999996 30.80000000000001 39.9 30.80000000000001 C 44.9 30.8 49 34.9 49 39.9 z" stroke-linecap="round" />
</g>
</g>
</g>
</svg>